<?xml version="1.0" standalone="no"?>
<!DOCTYPE svg PUBLIC "-//W3C//DTD SVG 20010904//EN"
 "http://www.w3.org/TR/2001/REC-SVG-20010904/DTD/svg10.dtd">
<svg version="1.0" xmlns="http://www.w3.org/2000/svg"
 width="456.000000pt" height="456.000000pt" viewBox="0 0 456.000000 456.000000"
 preserveAspectRatio="xMidYMid meet">
<metadata>
Created by potrace 1.11, written by Peter Selinger 2001-2013
</metadata>
<g transform="translate(0.000000,456.000000) scale(0.100000,-0.100000)"
fill="#000000" stroke="none">
<path d="M2400 4140 l0 -60 -120 0 -120 0 0 -60 0 -60 -60 0 -60 0 0 -60 0
-60 -60 0 -60 0 0 -60 0 -60 -60 0 -60 0 0 -60 0 -60 -60 0 -60 0 0 -120 0
-120 -180 0 -180 0 0 -60 0 -60 -180 0 -180 0 0 60 0 60 -120 0 -120 0 0 60 0
60 -180 0 -180 0 0 60 0 60 -120 0 -120 0 0 -60 0 -60 -60 0 -60 0 0 -240 0
-240 60 0 60 0 0 -240 0 -240 60 0 60 0 0 -120 0 -120 120 0 120 0 0 -60 0
-60 60 0 60 0 0 -300 0 -300 60 0 60 0 0 -60 0 -60 60 0 60 0 0 -60 0 -60 60
0 60 0 0 -60 0 -60 180 0 180 0 0 -180 0 -180 60 0 60 0 0 -60 0 -60 180 0
180 0 0 -60 0 -60 180 0 180 0 0 60 0 60 60 0 60 0 0 60 0 60 60 0 60 0 0 60
0 60 60 0 60 0 0 -180 0 -180 60 0 60 0 0 -120 0 -120 180 0 180 0 0 60 0 60
120 0 120 0 0 60 0 60 180 0 180 0 0 60 0 60 120 0 120 0 0 60 0 60 60 0 60 0
0 60 0 60 60 0 60 0 0 60 0 60 60 0 60 0 0 60 0 60 60 0 60 0 0 60 0 60 60 0
60 0 0 180 0 180 60 0 60 0 0 180 0 180 -60 0 -60 0 0 240 0 240 -60 0 -60 0
0 120 0 120 -60 0 -60 0 0 60 0 60 -60 0 -60 0 0 60 0 60 -120 0 -120 0 0 60
0 60 -60 0 -60 0 0 60 0 60 -120 0 -120 0 0 60 0 60 -300 0 -300 0 0 60 0 60
-60 0 -60 0 0 180 0 180 -60 0 -60 0 0 180 0 180 -120 0 -120 0 0 -60z m120
-180 l0 -120 60 0 60 0 0 -360 0 -360 60 0 60 0 0 60 0 60 360 0 360 0 0 -60
0 -60 120 0 120 0 0 -60 0 -60 60 0 60 0 0 -60 0 -60 120 0 120 0 0 -60 0 -60
60 0 60 0 0 -120 0 -120 60 0 60 0 0 -240 0 -240 60 0 60 0 0 -180 0 -180 -60
0 -60 0 0 -180 0 -180 -60 0 -60 0 0 -60 0 -60 -60 0 -60 0 0 -60 0 -60 -60 0
-60 0 0 -60 0 -60 -60 0 -60 0 0 -60 0 -60 -120 0 -120 0 0 -60 0 -60 -180 0
-180 0 0 -60 0 -60 -120 0 -120 0 0 -60 0 -60 -120 0 -120 0 0 60 0 60 -60 0
-60 0 0 600 0 600 -60 0 -60 0 0 -120 0 -120 -60 0 -60 0 0 -60 0 -60 60 0 60
0 0 -180 0 -180 -60 0 -60 0 0 -60 0 -60 -60 0 -60 0 0 -60 0 -60 -60 0 -60 0
0 -60 0 -60 -180 0 -180 0 0 60 0 60 -180 0 -180 0 0 180 0 180 240 0 240 0 0
-60 0 -60 60 0 60 0 0 60 0 60 120 0 120 0 0 60 0 60 -660 0 -660 0 0 60 0 60
-60 0 -60 0 0 60 0 60 -60 0 -60 0 0 300 0 300 -60 0 -60 0 0 60 0 60 -60 0
-60 0 0 60 0 60 -60 0 -60 0 0 60 0 60 -60 0 -60 0 0 240 0 240 -60 0 -60 0 0
240 0 240 120 0 120 0 0 -120 0 -120 60 0 60 0 0 60 0 60 120 0 120 0 0 -60 0
-60 120 0 120 0 0 -60 0 -60 180 0 180 0 0 60 0 60 180 0 180 0 0 60 0 60 60
0 60 0 0 120 0 120 60 0 60 0 0 60 0 60 60 0 60 0 0 60 0 60 120 0 120 0 0 60
0 60 60 0 60 0 0 60 0 60 60 0 60 0 0 -120z"/>
<path d="M2040 3660 l0 -60 -60 0 -60 0 0 -120 0 -120 60 0 60 0 0 -60 0 -60
60 0 60 0 0 -60 0 -60 60 0 60 0 0 60 0 60 -60 0 -60 0 0 60 0 60 -60 0 -60 0
0 120 0 120 60 0 60 0 0 60 0 60 -60 0 -60 0 0 -60z"/>
<path d="M480 3180 l0 -60 120 0 120 0 0 -180 0 -180 -60 0 -60 0 0 -60 0 -60
60 0 60 0 0 60 0 60 60 0 60 0 0 180 0 180 -60 0 -60 0 0 60 0 60 -120 0 -120
0 0 -60z"/>
<path d="M2760 2940 l0 -180 60 0 60 0 0 -360 0 -360 -60 0 -60 0 0 -60 0 -60
-60 0 -60 0 0 -60 0 -60 60 0 60 0 0 60 0 60 60 0 60 0 0 60 0 60 180 0 180 0
0 60 0 60 60 0 60 0 0 60 0 60 120 0 120 0 0 60 0 60 120 0 120 0 0 60 0 60
-120 0 -120 0 0 -60 0 -60 -120 0 -120 0 0 -60 0 -60 -60 0 -60 0 0 -60 0 -60
-120 0 -120 0 0 300 0 300 -60 0 -60 0 0 180 0 180 -60 0 -60 0 0 -180z"/>
<path d="M2400 2340 l0 -60 -60 0 -60 0 0 -180 0 -180 60 0 60 0 0 180 0 180
60 0 60 0 0 60 0 60 -60 0 -60 0 0 -60z"/>
<path d="M1080 1740 l0 -60 180 0 180 0 0 -60 0 -60 120 0 120 0 0 60 0 60
-120 0 -120 0 0 60 0 60 -180 0 -180 0 0 -60z"/>
<path d="M2160 1500 l0 -60 60 0 60 0 0 -60 0 -60 60 0 60 0 0 60 0 60 -60 0
-60 0 0 60 0 60 -60 0 -60 0 0 -60z"/>
<path d="M1800 960 l0 -120 60 0 60 0 0 120 0 120 -60 0 -60 0 0 -120z"/>
</g>
</svg>
